<?xml version="1.0" standalone="no"?>
<!DOCTYPE svg PUBLIC "-//W3C//DTD SVG 20010904//EN"
 "http://www.w3.org/TR/2001/REC-SVG-20010904/DTD/svg10.dtd">
<svg version="1.0" xmlns="http://www.w3.org/2000/svg"
 width="16.000000pt" height="16.000000pt" viewBox="0 0 16.000000 16.000000"
 preserveAspectRatio="xMidYMid meet">
<metadata>
Created by potrace 1.11, written by Peter Selinger 2001-2013
</metadata>
<g transform="translate(0.000000,16.000000) scale(0.009357,-0.009357)"
fill="#000000" stroke="none">
<path d="M462 1518 c-5 -7 -32 -51 -59 -98 -66 -114 -202 -348 -224 -385 -50
-83 -109 -196 -109 -207 0 -13 104 -194 162 -280 21 -31 38 -59 38 -62 0 -2
37 -64 81 -138 45 -73 91 -148 101 -166 l20 -32 367 0 367 0 86 128 c47 70
134 201 193 292 59 91 121 184 136 207 30 43 35 62 20 79 -5 5 -20 30 -34 56
-14 26 -61 107 -105 180 -142 239 -219 372 -236 406 l-17 32 -388 0 c-299 0
-391 -3 -399 -12z m774 -80 c9 -18 40 -73 69 -123 71 -121 173 -300 244 -429
l33 -58 -33 -52 c-54 -85 -173 -276 -184 -295 -12 -21 -65 -104 -122 -193
l-44 -68 -82 0 c-45 -1 -201 -1 -347 -1 -300 0 -271 -8 -325 91 -14 25 -31 54
-38 65 -147 236 -267 440 -267 455 0 14 54 112 162 293 32 54 58 100 58 102 0
3 13 26 28 52 16 27 48 81 71 121 l42 72 359 0 359 0 17 -32z"/>
<path d="M910 1190 c0 -6 9 -23 20 -38 10 -15 22 -39 25 -54 6 -24 4 -27 -17
-26 -59 4 -128 -3 -128 -12 0 -6 70 -10 190 -10 105 0 190 4 190 8 0 5 -11 19
-25 32 l-25 23 -24 -22 c-18 -17 -33 -22 -62 -19 -27 2 -38 7 -36 17 6 26 -18
66 -53 89 -38 24 -55 28 -55 12z"/>
<path d="M630 1112 l0 -81 -47 -3 c-27 -2 -48 -7 -48 -13 0 -5 21 -11 48 -13
53 -3 56 -10 31 -69 -51 -119 -71 -161 -91 -192 -13 -19 -23 -40 -23 -47 0
-25 25 -15 45 18 11 18 25 39 30 48 6 8 19 31 29 50 17 31 20 32 26 15 3 -11
2 -87 -3 -168 -10 -157 -7 -175 32 -162 20 6 21 12 21 196 0 120 4 189 10 189
6 0 23 -18 38 -40 31 -45 49 -50 58 -16 8 33 2 40 -56 72 -47 25 -50 30 -50
66 0 38 0 38 43 40 23 0 50 1 60 0 23 -2 21 17 -5 39 -19 17 -23 18 -38 4 -9
-8 -26 -15 -38 -15 -19 0 -22 5 -22 45 0 25 6 54 12 65 15 23 5 36 -34 45
l-28 7 0 -80z"/>
<path d="M1020 950 l-34 -80 -70 -1 c-39 -1 -81 0 -93 1 -16 1 -23 -4 -23 -15
0 -14 10 -16 58 -15 92 4 88 6 88 -50 -1 -59 -13 -71 -71 -69 -81 2 -105 -1
-105 -13 0 -10 22 -12 85 -9 66 2 85 0 86 -10 1 -8 2 -54 3 -104 1 -71 4 -90
16 -92 38 -7 45 13 42 112 l-4 95 101 0 c56 0 101 4 101 8 0 10 -43 52 -54 52
-4 0 -19 -9 -35 -21 -20 -14 -39 -19 -67 -17 l-39 3 -3 56 c-4 67 0 69 112 62
92 -6 111 -1 96 26 -14 27 -48 36 -68 18 -17 -15 -43 -20 -95 -18 l-28 1 31
45 c17 25 40 51 51 58 28 17 23 34 -12 46 -18 6 -33 11 -34 11 0 0 -16 -36
-35 -80z"/>
<path d="M860 1016 c0 -2 7 -17 15 -32 8 -16 15 -38 15 -49 0 -32 15 -48 39
-40 23 7 28 43 11 76 -12 22 -80 61 -80 45z"/>
</g>
</svg>
