<?xml version="1.0" standalone="no"?>
<!DOCTYPE svg PUBLIC "-//W3C//DTD SVG 20010904//EN"
 "http://www.w3.org/TR/2001/REC-SVG-20010904/DTD/svg10.dtd">
<svg version="1.0" xmlns="http://www.w3.org/2000/svg"
 width="16.000000pt" height="16.000000pt" viewBox="0 0 16.000000 16.000000"
 preserveAspectRatio="xMidYMid meet">
<metadata>
Created by potrace 1.11, written by Peter Selinger 2001-2013
</metadata>
<g transform="translate(0.000000,16.000000) scale(0.004571,-0.004571)"
fill="#000000" stroke="none">
<path d="M2021 3241 c-24 -15 -2 -48 107 -159 121 -124 183 -172 222 -172 42
0 50 17 50 110 0 131 -35 180 -155 215 -57 16 -201 20 -224 6z"/>
<path d="M850 3225 c-11 -13 -11 -20 -2 -33 53 -73 71 -202 79 -579 l6 -301
-39 -10 c-21 -6 -136 -35 -254 -66 -265 -68 -392 -105 -404 -116 -18 -18 4
-37 50 -44 115 -15 335 1 516 39 39 9 73 14 75 11 8 -8 -118 -272 -217 -451
-120 -219 -172 -294 -359 -526 -97 -120 -141 -185 -141 -211 0 -24 9 -23 61
10 203 131 492 477 656 787 l53 100 -1 -350 c0 -394 -9 -606 -34 -758 l-18
-104 27 -79 c47 -140 99 -225 122 -201 29 29 51 374 60 971 l6 380 45 -52 c57
-66 158 -144 181 -140 23 4 64 81 65 123 2 83 -99 160 -226 172 l-67 6 0 187
0 187 141 37 c206 55 263 76 267 103 4 28 -70 73 -119 73 -33 0 -189 -22 -258
-36 l-33 -7 4 319 c4 296 6 323 26 378 15 42 19 64 12 77 -24 43 -141 104
-223 115 -33 5 -46 2 -57 -11z"/>
<path d="M2625 2823 c-91 -13 -920 -189 -935 -198 -22 -14 -7 -34 38 -51 113
-44 457 -10 1045 103 154 30 161 36 105 91 -59 56 -133 72 -253 55z"/>
<path d="M2403 2588 c-30 -14 -29 -33 2 -70 19 -22 25 -41 25 -76 0 -38 -51
-259 -110 -483 -9 -34 -13 -37 -58 -42 -26 -4 -148 -20 -272 -37 -124 -17
-297 -37 -384 -45 -180 -17 -226 -24 -226 -35 0 -13 78 -77 116 -95 31 -15 50
-14 281 10 137 14 275 29 309 32 l61 6 6 -74 c4 -41 9 -113 13 -160 l7 -87
-49 -10 c-131 -28 -481 -94 -559 -105 -49 -7 -90 -18 -92 -24 -5 -15 56 -54
135 -87 65 -27 120 -32 187 -16 124 30 369 69 375 60 4 -6 5 -160 2 -343 -5
-363 6 -562 38 -695 49 -204 85 -178 110 78 10 106 30 683 30 886 l0 110 213
28 c116 16 262 32 324 35 110 7 143 18 143 47 0 24 -70 92 -108 106 -57 20
-265 15 -415 -10 -70 -12 -133 -22 -139 -22 -8 0 -9 30 -4 108 5 96 2 133 -18
183 -6 13 4 17 61 22 37 3 223 22 413 42 189 19 368 35 397 35 61 0 103 14
103 34 0 21 -75 82 -144 116 -40 21 -74 30 -106 30 -37 0 -392 -54 -623 -95
-28 -5 -28 -4 46 138 100 190 157 321 157 362 0 46 -36 85 -113 123 -68 34
-97 38 -134 20z"/>
<path d="M1795 2356 c-17 -12 -17 -17 -5 -60 15 -54 137 -244 176 -275 36 -28
58 -15 83 54 27 72 26 109 -3 159 -49 84 -201 158 -251 122z"/>
</g>
</svg>
